<svg xmlns="http://www.w3.org/2000/svg" xmlns:xlink="http://www.w3.org/1999/xlink" width="700" height="500" fill="white">
  <style>text { font-family: Helvetica, Arial, sans-serif; stroke: black; fill: black; }</style>
  <defs>
    <!-- NOTE MARKERS -->
    <g id="note_E">
      <circle cx="0" cy="0" r="20" fill="cyan" stroke="black" stroke-width="1" stroke-opacity="50%" />
      <text x="0" y="0" text-anchor="middle" alignment-baseline="middle">E</text>
    </g>
    <g id="note_G">
      <circle cx="0" cy="0" r="20" fill="magenta" stroke="black" stroke-width="1" stroke-opacity="50%" />
      <text x="0" y="0" text-anchor="middle" alignment-baseline="middle">G</text>
    </g>
    <g id="note_B">
      <circle cx="0" cy="0" r="20" fill="yellow" stroke="black" stroke-width="1" stroke-opacity="50%" />
      <text x="0" y="0" text-anchor="middle" alignment-baseline="middle">B</text>
    </g>
  </defs>
  <!-- TITLE -->
  <text x="350" y="50" font-size="166%" text-anchor="middle" alignment-baseline="middle">G - vi - Em - E, G, B</text>
  <g id="frets">
    <!-- FRETS -->
    <line x1="100" y1="100" x2="100" y2="400" stroke="darkgrey" stroke-width="2" id="fret_1" />
    <line x1="200" y1="100" x2="200" y2="400" stroke="darkgrey" stroke-width="2" id="fret_2" />
    <line x1="300" y1="100" x2="300" y2="400" stroke="darkgrey" stroke-width="2" id="fret_3" />
    <line x1="400" y1="100" x2="400" y2="400" stroke="darkgrey" stroke-width="4" id="fret_4" />
    <line x1="500" y1="100" x2="500" y2="400" stroke="darkgrey" stroke-width="2" id="fret_5" />
    <line x1="600" y1="100" x2="600" y2="400" stroke="darkgrey" stroke-width="4" id="fret_6" />
  </g>
  <g id="dots">
    <!-- DOTS -->
    <circle cx="350" cy="250" r="20" stroke="none" fill="lightgrey" id="dot_3" />
    <circle cx="550" cy="250" r="20" stroke="none" fill="lightgrey" id="dot_5" />
  </g>
  <!-- NUT -->
  <line x1="100" y1="97" x2="100" y2="403" stroke="black" stroke-width="16" id="nut" />
  <g id="strings">
    <!-- STRINGS -->
    <text x="25" y="100" font-size="133%" font-weight="bold" text-anchor="middle" alignment-baseline="middle">G</text>
    <line x1="100" y1="100" x2="700" y2="100" stroke="black" stroke-width="6" id="string_G" />
    <text x="25" y="200" font-size="133%" font-weight="bold" text-anchor="middle" alignment-baseline="middle">D</text>
    <line x1="100" y1="200" x2="700" y2="200" stroke="black" stroke-width="6" id="string_D" />
    <text x="25" y="300" font-size="133%" font-weight="bold" text-anchor="middle" alignment-baseline="middle">A</text>
    <line x1="100" y1="300" x2="700" y2="300" stroke="black" stroke-width="6" id="string_A" />
    <text x="25" y="400" font-size="133%" font-weight="bold" text-anchor="middle" alignment-baseline="middle">E</text>
    <line x1="100" y1="400" x2="700" y2="400" stroke="black" stroke-width="6" id="string_E" />
  </g>
  <g id="arpeggio">
    <!-- ARPEGGIO -->
    <use x="100" y="400" xlink:href="#note_E" />
    <use x="400" y="400" xlink:href="#note_G" />
    <use x="300" y="300" xlink:href="#note_B" />
    <use x="300" y="200" xlink:href="#note_E" />
    <use x="600" y="200" xlink:href="#note_G" />
    <use x="100" y="100" xlink:href="#note_G" />
    <use x="500" y="100" xlink:href="#note_B" />
  </g>
</svg>
